# BORUMT2 original procedural map asset
v -15.220 0.000 -12.220
v -14.780 0.000 -12.220
v -14.780 0.000 -11.780
v -15.220 0.000 -11.780
v -15.220 1.500 -12.220
v -14.780 1.500 -12.220
v -14.780 1.500 -11.780
v -15.220 1.500 -11.780
v -15.850 1.100 -12.850
v -14.150 1.100 -12.850
v -14.150 1.100 -11.150
v -15.850 1.100 -11.150
v -15.850 2.400 -12.850
v -14.150 2.400 -12.850
v -14.150 2.400 -11.150
v -15.850 2.400 -11.150
v -15.600 1.900 -12.600
v -14.400 1.900 -12.600
v -14.400 1.900 -11.400
v -15.600 1.900 -11.400
v -15.600 3.000 -12.600
v -14.400 3.000 -12.600
v -14.400 3.000 -11.400
v -15.600 3.000 -11.400
v -13.220 0.000 -16.220
v -12.780 0.000 -16.220
v -12.780 0.000 -15.780
v -13.220 0.000 -15.780
v -13.220 1.500 -16.220
v -12.780 1.500 -16.220
v -12.780 1.500 -15.780
v -13.220 1.500 -15.780
v -13.850 1.100 -16.850
v -12.150 1.100 -16.850
v -12.150 1.100 -15.150
v -13.850 1.100 -15.150
v -13.850 2.400 -16.850
v -12.150 2.400 -16.850
v -12.150 2.400 -15.150
v -13.850 2.400 -15.150
v -13.600 1.900 -16.600
v -12.400 1.900 -16.600
v -12.400 1.900 -15.400
v -13.600 1.900 -15.400
v -13.600 3.000 -16.600
v -12.400 3.000 -16.600
v -12.400 3.000 -15.400
v -13.600 3.000 -15.400
v -17.220 0.000 -5.220
v -16.780 0.000 -5.220
v -16.780 0.000 -4.780
v -17.220 0.000 -4.780
v -17.220 1.500 -5.220
v -16.780 1.500 -5.220
v -16.780 1.500 -4.780
v -17.220 1.500 -4.780
v -17.850 1.100 -5.850
v -16.150 1.100 -5.850
v -16.150 1.100 -4.150
v -17.850 1.100 -4.150
v -17.850 2.400 -5.850
v -16.150 2.400 -5.850
v -16.150 2.400 -4.150
v -17.850 2.400 -4.150
v -17.600 1.900 -5.600
v -16.400 1.900 -5.600
v -16.400 1.900 -4.400
v -17.600 1.900 -4.400
v -17.600 3.000 -5.600
v -16.400 3.000 -5.600
v -16.400 3.000 -4.400
v -17.600 3.000 -4.400
v -14.220 0.000 4.780
v -13.780 0.000 4.780
v -13.780 0.000 5.220
v -14.220 0.000 5.220
v -14.220 1.500 4.780
v -13.780 1.500 4.780
v -13.780 1.500 5.220
v -14.220 1.500 5.220
v -14.850 1.100 4.150
v -13.150 1.100 4.150
v -13.150 1.100 5.850
v -14.850 1.100 5.850
v -14.850 2.400 4.150
v -13.150 2.400 4.150
v -13.150 2.400 5.850
v -14.850 2.400 5.850
v -14.600 1.900 4.400
v -13.400 1.900 4.400
v -13.400 1.900 5.600
v -14.600 1.900 5.600
v -14.600 3.000 4.400
v -13.400 3.000 4.400
v -13.400 3.000 5.600
v -14.600 3.000 5.600
v -18.220 0.000 9.780
v -17.780 0.000 9.780
v -17.780 0.000 10.220
v -18.220 0.000 10.220
v -18.220 1.500 9.780
v -17.780 1.500 9.780
v -17.780 1.500 10.220
v -18.220 1.500 10.220
v -18.850 1.100 9.150
v -17.150 1.100 9.150
v -17.150 1.100 10.850
v -18.850 1.100 10.850
v -18.850 2.400 9.150
v -17.150 2.400 9.150
v -17.150 2.400 10.850
v -18.850 2.400 10.850
v -18.600 1.900 9.400
v -17.400 1.900 9.400
v -17.400 1.900 10.600
v -18.600 1.900 10.600
v -18.600 3.000 9.400
v -17.400 3.000 9.400
v -17.400 3.000 10.600
v -18.600 3.000 10.600
v -12.220 0.000 13.780
v -11.780 0.000 13.780
v -11.780 0.000 14.220
v -12.220 0.000 14.220
v -12.220 1.500 13.780
v -11.780 1.500 13.780
v -11.780 1.500 14.220
v -12.220 1.500 14.220
v -12.850 1.100 13.150
v -11.150 1.100 13.150
v -11.150 1.100 14.850
v -12.850 1.100 14.850
v -12.850 2.400 13.150
v -11.150 2.400 13.150
v -11.150 2.400 14.850
v -12.850 2.400 14.850
v -12.600 1.900 13.400
v -11.400 1.900 13.400
v -11.400 1.900 14.600
v -12.600 1.900 14.600
v -12.600 3.000 13.400
v -11.400 3.000 13.400
v -11.400 3.000 14.600
v -12.600 3.000 14.600
v 13.780 0.000 -13.220
v 14.220 0.000 -13.220
v 14.220 0.000 -12.780
v 13.780 0.000 -12.780
v 13.780 1.500 -13.220
v 14.220 1.500 -13.220
v 14.220 1.500 -12.780
v 13.780 1.500 -12.780
v 13.150 1.100 -13.850
v 14.850 1.100 -13.850
v 14.850 1.100 -12.150
v 13.150 1.100 -12.150
v 13.150 2.400 -13.850
v 14.850 2.400 -13.850
v 14.850 2.400 -12.150
v 13.150 2.400 -12.150
v 13.400 1.900 -13.600
v 14.600 1.900 -13.600
v 14.600 1.900 -12.400
v 13.400 1.900 -12.400
v 13.400 3.000 -13.600
v 14.600 3.000 -13.600
v 14.600 3.000 -12.400
v 13.400 3.000 -12.400
v 16.780 0.000 -8.220
v 17.220 0.000 -8.220
v 17.220 0.000 -7.780
v 16.780 0.000 -7.780
v 16.780 1.500 -8.220
v 17.220 1.500 -8.220
v 17.220 1.500 -7.780
v 16.780 1.500 -7.780
v 16.150 1.100 -8.850
v 17.850 1.100 -8.850
v 17.850 1.100 -7.150
v 16.150 1.100 -7.150
v 16.150 2.400 -8.850
v 17.850 2.400 -8.850
v 17.850 2.400 -7.150
v 16.150 2.400 -7.150
v 16.400 1.900 -8.600
v 17.600 1.900 -8.600
v 17.600 1.900 -7.400
v 16.400 1.900 -7.400
v 16.400 3.000 -8.600
v 17.600 3.000 -8.600
v 17.600 3.000 -7.400
v 16.400 3.000 -7.400
v 14.780 0.000 -0.220
v 15.220 0.000 -0.220
v 15.220 0.000 0.220
v 14.780 0.000 0.220
v 14.780 1.500 -0.220
v 15.220 1.500 -0.220
v 15.220 1.500 0.220
v 14.780 1.500 0.220
v 14.150 1.100 -0.850
v 15.850 1.100 -0.850
v 15.850 1.100 0.850
v 14.150 1.100 0.850
v 14.150 2.400 -0.850
v 15.850 2.400 -0.850
v 15.850 2.400 0.850
v 14.150 2.400 0.850
v 14.400 1.900 -0.600
v 15.600 1.900 -0.600
v 15.600 1.900 0.600
v 14.400 1.900 0.600
v 14.400 3.000 -0.600
v 15.600 3.000 -0.600
v 15.600 3.000 0.600
v 14.400 3.000 0.600
v 17.780 0.000 6.780
v 18.220 0.000 6.780
v 18.220 0.000 7.220
v 17.780 0.000 7.220
v 17.780 1.500 6.780
v 18.220 1.500 6.780
v 18.220 1.500 7.220
v 17.780 1.500 7.220
v 17.150 1.100 6.150
v 18.850 1.100 6.150
v 18.850 1.100 7.850
v 17.150 1.100 7.850
v 17.150 2.400 6.150
v 18.850 2.400 6.150
v 18.850 2.400 7.850
v 17.150 2.400 7.850
v 17.400 1.900 6.400
v 18.600 1.900 6.400
v 18.600 1.900 7.600
v 17.400 1.900 7.600
v 17.400 3.000 6.400
v 18.600 3.000 6.400
v 18.600 3.000 7.600
v 17.400 3.000 7.600
v 12.780 0.000 12.780
v 13.220 0.000 12.780
v 13.220 0.000 13.220
v 12.780 0.000 13.220
v 12.780 1.500 12.780
v 13.220 1.500 12.780
v 13.220 1.500 13.220
v 12.780 1.500 13.220
v 12.150 1.100 12.150
v 13.850 1.100 12.150
v 13.850 1.100 13.850
v 12.150 1.100 13.850
v 12.150 2.400 12.150
v 13.850 2.400 12.150
v 13.850 2.400 13.850
v 12.150 2.400 13.850
v 12.400 1.900 12.400
v 13.600 1.900 12.400
v 13.600 1.900 13.600
v 12.400 1.900 13.600
v 12.400 3.000 12.400
v 13.600 3.000 12.400
v 13.600 3.000 13.600
v 12.400 3.000 13.600
v 8.780 0.000 15.780
v 9.220 0.000 15.780
v 9.220 0.000 16.220
v 8.780 0.000 16.220
v 8.780 1.500 15.780
v 9.220 1.500 15.780
v 9.220 1.500 16.220
v 8.780 1.500 16.220
v 8.150 1.100 15.150
v 9.850 1.100 15.150
v 9.850 1.100 16.850
v 8.150 1.100 16.850
v 8.150 2.400 15.150
v 9.850 2.400 15.150
v 9.850 2.400 16.850
v 8.150 2.400 16.850
v 8.400 1.900 15.400
v 9.600 1.900 15.400
v 9.600 1.900 16.600
v 8.400 1.900 16.600
v 8.400 3.000 15.400
v 9.600 3.000 15.400
v 9.600 3.000 16.600
v 8.400 3.000 16.600
f 1 2 3
f 1 3 4
f 5 8 7
f 5 7 6
f 1 5 6
f 1 6 2
f 2 6 7
f 2 7 3
f 3 7 8
f 3 8 4
f 5 1 4
f 5 4 8
f 9 10 11
f 9 11 12
f 13 16 15
f 13 15 14
f 9 13 14
f 9 14 10
f 10 14 15
f 10 15 11
f 11 15 16
f 11 16 12
f 13 9 12
f 13 12 16
f 17 18 19
f 17 19 20
f 21 24 23
f 21 23 22
f 17 21 22
f 17 22 18
f 18 22 23
f 18 23 19
f 19 23 24
f 19 24 20
f 21 17 20
f 21 20 24
f 25 26 27
f 25 27 28
f 29 32 31
f 29 31 30
f 25 29 30
f 25 30 26
f 26 30 31
f 26 31 27
f 27 31 32
f 27 32 28
f 29 25 28
f 29 28 32
f 33 34 35
f 33 35 36
f 37 40 39
f 37 39 38
f 33 37 38
f 33 38 34
f 34 38 39
f 34 39 35
f 35 39 40
f 35 40 36
f 37 33 36
f 37 36 40
f 41 42 43
f 41 43 44
f 45 48 47
f 45 47 46
f 41 45 46
f 41 46 42
f 42 46 47
f 42 47 43
f 43 47 48
f 43 48 44
f 45 41 44
f 45 44 48
f 49 50 51
f 49 51 52
f 53 56 55
f 53 55 54
f 49 53 54
f 49 54 50
f 50 54 55
f 50 55 51
f 51 55 56
f 51 56 52
f 53 49 52
f 53 52 56
f 57 58 59
f 57 59 60
f 61 64 63
f 61 63 62
f 57 61 62
f 57 62 58
f 58 62 63
f 58 63 59
f 59 63 64
f 59 64 60
f 61 57 60
f 61 60 64
f 65 66 67
f 65 67 68
f 69 72 71
f 69 71 70
f 65 69 70
f 65 70 66
f 66 70 71
f 66 71 67
f 67 71 72
f 67 72 68
f 69 65 68
f 69 68 72
f 73 74 75
f 73 75 76
f 77 80 79
f 77 79 78
f 73 77 78
f 73 78 74
f 74 78 79
f 74 79 75
f 75 79 80
f 75 80 76
f 77 73 76
f 77 76 80
f 81 82 83
f 81 83 84
f 85 88 87
f 85 87 86
f 81 85 86
f 81 86 82
f 82 86 87
f 82 87 83
f 83 87 88
f 83 88 84
f 85 81 84
f 85 84 88
f 89 90 91
f 89 91 92
f 93 96 95
f 93 95 94
f 89 93 94
f 89 94 90
f 90 94 95
f 90 95 91
f 91 95 96
f 91 96 92
f 93 89 92
f 93 92 96
f 97 98 99
f 97 99 100
f 101 104 103
f 101 103 102
f 97 101 102
f 97 102 98
f 98 102 103
f 98 103 99
f 99 103 104
f 99 104 100
f 101 97 100
f 101 100 104
f 105 106 107
f 105 107 108
f 109 112 111
f 109 111 110
f 105 109 110
f 105 110 106
f 106 110 111
f 106 111 107
f 107 111 112
f 107 112 108
f 109 105 108
f 109 108 112
f 113 114 115
f 113 115 116
f 117 120 119
f 117 119 118
f 113 117 118
f 113 118 114
f 114 118 119
f 114 119 115
f 115 119 120
f 115 120 116
f 117 113 116
f 117 116 120
f 121 122 123
f 121 123 124
f 125 128 127
f 125 127 126
f 121 125 126
f 121 126 122
f 122 126 127
f 122 127 123
f 123 127 128
f 123 128 124
f 125 121 124
f 125 124 128
f 129 130 131
f 129 131 132
f 133 136 135
f 133 135 134
f 129 133 134
f 129 134 130
f 130 134 135
f 130 135 131
f 131 135 136
f 131 136 132
f 133 129 132
f 133 132 136
f 137 138 139
f 137 139 140
f 141 144 143
f 141 143 142
f 137 141 142
f 137 142 138
f 138 142 143
f 138 143 139
f 139 143 144
f 139 144 140
f 141 137 140
f 141 140 144
f 145 146 147
f 145 147 148
f 149 152 151
f 149 151 150
f 145 149 150
f 145 150 146
f 146 150 151
f 146 151 147
f 147 151 152
f 147 152 148
f 149 145 148
f 149 148 152
f 153 154 155
f 153 155 156
f 157 160 159
f 157 159 158
f 153 157 158
f 153 158 154
f 154 158 159
f 154 159 155
f 155 159 160
f 155 160 156
f 157 153 156
f 157 156 160
f 161 162 163
f 161 163 164
f 165 168 167
f 165 167 166
f 161 165 166
f 161 166 162
f 162 166 167
f 162 167 163
f 163 167 168
f 163 168 164
f 165 161 164
f 165 164 168
f 169 170 171
f 169 171 172
f 173 176 175
f 173 175 174
f 169 173 174
f 169 174 170
f 170 174 175
f 170 175 171
f 171 175 176
f 171 176 172
f 173 169 172
f 173 172 176
f 177 178 179
f 177 179 180
f 181 184 183
f 181 183 182
f 177 181 182
f 177 182 178
f 178 182 183
f 178 183 179
f 179 183 184
f 179 184 180
f 181 177 180
f 181 180 184
f 185 186 187
f 185 187 188
f 189 192 191
f 189 191 190
f 185 189 190
f 185 190 186
f 186 190 191
f 186 191 187
f 187 191 192
f 187 192 188
f 189 185 188
f 189 188 192
f 193 194 195
f 193 195 196
f 197 200 199
f 197 199 198
f 193 197 198
f 193 198 194
f 194 198 199
f 194 199 195
f 195 199 200
f 195 200 196
f 197 193 196
f 197 196 200
f 201 202 203
f 201 203 204
f 205 208 207
f 205 207 206
f 201 205 206
f 201 206 202
f 202 206 207
f 202 207 203
f 203 207 208
f 203 208 204
f 205 201 204
f 205 204 208
f 209 210 211
f 209 211 212
f 213 216 215
f 213 215 214
f 209 213 214
f 209 214 210
f 210 214 215
f 210 215 211
f 211 215 216
f 211 216 212
f 213 209 212
f 213 212 216
f 217 218 219
f 217 219 220
f 221 224 223
f 221 223 222
f 217 221 222
f 217 222 218
f 218 222 223
f 218 223 219
f 219 223 224
f 219 224 220
f 221 217 220
f 221 220 224
f 225 226 227
f 225 227 228
f 229 232 231
f 229 231 230
f 225 229 230
f 225 230 226
f 226 230 231
f 226 231 227
f 227 231 232
f 227 232 228
f 229 225 228
f 229 228 232
f 233 234 235
f 233 235 236
f 237 240 239
f 237 239 238
f 233 237 238
f 233 238 234
f 234 238 239
f 234 239 235
f 235 239 240
f 235 240 236
f 237 233 236
f 237 236 240
f 241 242 243
f 241 243 244
f 245 248 247
f 245 247 246
f 241 245 246
f 241 246 242
f 242 246 247
f 242 247 243
f 243 247 248
f 243 248 244
f 245 241 244
f 245 244 248
f 249 250 251
f 249 251 252
f 253 256 255
f 253 255 254
f 249 253 254
f 249 254 250
f 250 254 255
f 250 255 251
f 251 255 256
f 251 256 252
f 253 249 252
f 253 252 256
f 257 258 259
f 257 259 260
f 261 264 263
f 261 263 262
f 257 261 262
f 257 262 258
f 258 262 263
f 258 263 259
f 259 263 264
f 259 264 260
f 261 257 260
f 261 260 264
f 265 266 267
f 265 267 268
f 269 272 271
f 269 271 270
f 265 269 270
f 265 270 266
f 266 270 271
f 266 271 267
f 267 271 272
f 267 272 268
f 269 265 268
f 269 268 272
f 273 274 275
f 273 275 276
f 277 280 279
f 277 279 278
f 273 277 278
f 273 278 274
f 274 278 279
f 274 279 275
f 275 279 280
f 275 280 276
f 277 273 276
f 277 276 280
f 281 282 283
f 281 283 284
f 285 288 287
f 285 287 286
f 281 285 286
f 281 286 282
f 282 286 287
f 282 287 283
f 283 287 288
f 283 288 284
f 285 281 284
f 285 284 288
