# BORUMT2 original procedural map asset
v -4.900 0.000 5.280
v -3.100 0.000 5.280
v -3.100 0.000 6.720
v -4.900 0.000 6.720
v -4.900 0.630 5.280
v -3.100 0.630 5.280
v -3.100 0.630 6.720
v -4.900 0.630 6.720
v 1.300 0.000 7.440
v 2.700 0.000 7.440
v 2.700 0.000 8.560
v 1.300 0.000 8.560
v 1.300 0.490 7.440
v 2.700 0.490 7.440
v 2.700 0.490 8.560
v 1.300 0.490 8.560
v 4.000 0.000 3.200
v 6.000 0.000 3.200
v 6.000 0.000 4.800
v 4.000 0.000 4.800
v 4.000 0.700 3.200
v 6.000 0.700 3.200
v 6.000 0.700 4.800
v 4.000 0.700 4.800
v -7.650 0.000 10.480
v -6.350 0.000 10.480
v -6.350 0.000 11.520
v -7.650 0.000 11.520
v -7.650 0.455 10.480
v -6.350 0.455 10.480
v -6.350 0.455 11.520
v -7.650 0.455 11.520
v 9.200 0.000 3.360
v 10.800 0.000 3.360
v 10.800 0.000 4.640
v 9.200 0.000 4.640
v 9.200 0.560 3.360
v 10.800 0.560 3.360
v 10.800 0.560 4.640
v 9.200 0.560 4.640
v -11.700 0.000 1.440
v -10.300 0.000 1.440
v -10.300 0.000 2.560
v -11.700 0.000 2.560
v -11.700 0.490 1.440
v -10.300 0.490 1.440
v -10.300 0.490 2.560
v -11.700 0.490 2.560
v 10.000 0.000 11.200
v 12.000 0.000 11.200
v 12.000 0.000 12.800
v 10.000 0.000 12.800
v 10.000 0.700 11.200
v 12.000 0.700 11.200
v 12.000 0.700 12.800
v 10.000 0.700 12.800
v 2.200 0.000 -13.640
v 3.800 0.000 -13.640
v 3.800 0.000 -12.360
v 2.200 0.000 -12.360
v 2.200 0.560 -13.640
v 3.800 0.560 -13.640
v 3.800 0.560 -12.360
v 2.200 0.560 -12.360
v -3.650 0.000 -15.520
v -2.350 0.000 -15.520
v -2.350 0.000 -14.480
v -3.650 0.000 -14.480
v -3.650 0.455 -15.520
v -2.350 0.455 -15.520
v -2.350 0.455 -14.480
v -3.650 0.455 -14.480
f 1 2 3
f 1 3 4
f 5 8 7
f 5 7 6
f 1 5 6
f 1 6 2
f 2 6 7
f 2 7 3
f 3 7 8
f 3 8 4
f 5 1 4
f 5 4 8
f 9 10 11
f 9 11 12
f 13 16 15
f 13 15 14
f 9 13 14
f 9 14 10
f 10 14 15
f 10 15 11
f 11 15 16
f 11 16 12
f 13 9 12
f 13 12 16
f 17 18 19
f 17 19 20
f 21 24 23
f 21 23 22
f 17 21 22
f 17 22 18
f 18 22 23
f 18 23 19
f 19 23 24
f 19 24 20
f 21 17 20
f 21 20 24
f 25 26 27
f 25 27 28
f 29 32 31
f 29 31 30
f 25 29 30
f 25 30 26
f 26 30 31
f 26 31 27
f 27 31 32
f 27 32 28
f 29 25 28
f 29 28 32
f 33 34 35
f 33 35 36
f 37 40 39
f 37 39 38
f 33 37 38
f 33 38 34
f 34 38 39
f 34 39 35
f 35 39 40
f 35 40 36
f 37 33 36
f 37 36 40
f 41 42 43
f 41 43 44
f 45 48 47
f 45 47 46
f 41 45 46
f 41 46 42
f 42 46 47
f 42 47 43
f 43 47 48
f 43 48 44
f 45 41 44
f 45 44 48
f 49 50 51
f 49 51 52
f 53 56 55
f 53 55 54
f 49 53 54
f 49 54 50
f 50 54 55
f 50 55 51
f 51 55 56
f 51 56 52
f 53 49 52
f 53 52 56
f 57 58 59
f 57 59 60
f 61 64 63
f 61 63 62
f 57 61 62
f 57 62 58
f 58 62 63
f 58 63 59
f 59 63 64
f 59 64 60
f 61 57 60
f 61 60 64
f 65 66 67
f 65 67 68
f 69 72 71
f 69 71 70
f 65 69 70
f 65 70 66
f 66 70 71
f 66 71 67
f 67 71 72
f 67 72 68
f 69 65 68
f 69 68 72
