# BORUMT2 original low-poly placeholder | savasci | erkek
# Geometry-only OBJ; renderer currently uses solid color.
v -0.33000 1.03000 -0.18000
v 0.33000 1.03000 -0.18000
v 0.33000 1.87000 -0.18000
v -0.33000 1.87000 -0.18000
v -0.33000 1.03000 0.18000
v 0.33000 1.03000 0.18000
v 0.33000 1.87000 0.18000
v -0.33000 1.87000 0.18000
v -0.26000 0.64000 -0.16000
v 0.26000 0.64000 -0.16000
v 0.26000 1.08000 -0.16000
v -0.26000 1.08000 -0.16000
v -0.26000 0.64000 0.16000
v 0.26000 0.64000 0.16000
v 0.26000 1.08000 0.16000
v -0.26000 1.08000 0.16000
v -0.22000 1.90000 -0.20000
v 0.22000 1.90000 -0.20000
v 0.22000 2.34000 -0.20000
v -0.22000 2.34000 -0.20000
v -0.22000 1.90000 0.20000
v 0.22000 1.90000 0.20000
v 0.22000 2.34000 0.20000
v -0.22000 2.34000 0.20000
v -0.10000 1.76000 -0.10000
v 0.10000 1.76000 -0.10000
v 0.10000 1.96000 -0.10000
v -0.10000 1.96000 -0.10000
v -0.10000 1.76000 0.10000
v 0.10000 1.76000 0.10000
v 0.10000 1.96000 0.10000
v -0.10000 1.96000 0.10000
v -0.61000 1.09000 -0.12000
v -0.37000 1.09000 -0.12000
v -0.37000 1.81000 -0.12000
v -0.61000 1.81000 -0.12000
v -0.61000 1.09000 0.12000
v -0.37000 1.09000 0.12000
v -0.37000 1.81000 0.12000
v -0.61000 1.81000 0.12000
v 0.37000 1.09000 -0.12000
v 0.61000 1.09000 -0.12000
v 0.61000 1.81000 -0.12000
v 0.37000 1.81000 -0.12000
v 0.37000 1.09000 0.12000
v 0.61000 1.09000 0.12000
v 0.61000 1.81000 0.12000
v 0.37000 1.81000 0.12000
v -0.27000 -0.07000 -0.14000
v -0.01000 -0.07000 -0.14000
v -0.01000 0.77000 -0.14000
v -0.27000 0.77000 -0.14000
v -0.27000 -0.07000 0.14000
v -0.01000 -0.07000 0.14000
v -0.01000 0.77000 0.14000
v -0.27000 0.77000 0.14000
v 0.01000 -0.07000 -0.14000
v 0.27000 -0.07000 -0.14000
v 0.27000 0.77000 -0.14000
v 0.01000 0.77000 -0.14000
v 0.01000 -0.07000 0.14000
v 0.27000 -0.07000 0.14000
v 0.27000 0.77000 0.14000
v 0.01000 0.77000 0.14000
v -0.34000 1.40000 0.16000
v 0.34000 1.40000 0.16000
v 0.34000 1.56000 0.16000
v -0.34000 1.56000 0.16000
v -0.34000 1.40000 0.28000
v 0.34000 1.40000 0.28000
v 0.34000 1.56000 0.28000
v -0.34000 1.56000 0.28000
v 0.47000 0.94000 -0.05000
v 0.57000 0.94000 -0.05000
v 0.57000 1.90000 -0.05000
v 0.47000 1.90000 -0.05000
v 0.47000 0.94000 0.05000
v 0.57000 0.94000 0.05000
v 0.57000 1.90000 0.05000
v 0.47000 1.90000 0.05000
v 0.43000 1.86000 -0.03000
v 0.61000 1.86000 -0.03000
v 0.61000 1.98000 -0.03000
v 0.43000 1.98000 -0.03000
v 0.43000 1.86000 0.03000
v 0.61000 1.86000 0.03000
v 0.61000 1.98000 0.03000
v 0.43000 1.98000 0.03000
f 1 2 3
f 1 3 4
f 5 7 6
f 5 8 7
f 1 5 6
f 1 6 2
f 4 3 7
f 4 7 8
f 2 6 7
f 2 7 3
f 1 4 8
f 1 8 5
f 9 10 11
f 9 11 12
f 13 15 14
f 13 16 15
f 9 13 14
f 9 14 10
f 12 11 15
f 12 15 16
f 10 14 15
f 10 15 11
f 9 12 16
f 9 16 13
f 17 18 19
f 17 19 20
f 21 23 22
f 21 24 23
f 17 21 22
f 17 22 18
f 20 19 23
f 20 23 24
f 18 22 23
f 18 23 19
f 17 20 24
f 17 24 21
f 25 26 27
f 25 27 28
f 29 31 30
f 29 32 31
f 25 29 30
f 25 30 26
f 28 27 31
f 28 31 32
f 26 30 31
f 26 31 27
f 25 28 32
f 25 32 29
f 33 34 35
f 33 35 36
f 37 39 38
f 37 40 39
f 33 37 38
f 33 38 34
f 36 35 39
f 36 39 40
f 34 38 39
f 34 39 35
f 33 36 40
f 33 40 37
f 41 42 43
f 41 43 44
f 45 47 46
f 45 48 47
f 41 45 46
f 41 46 42
f 44 43 47
f 44 47 48
f 42 46 47
f 42 47 43
f 41 44 48
f 41 48 45
f 49 50 51
f 49 51 52
f 53 55 54
f 53 56 55
f 49 53 54
f 49 54 50
f 52 51 55
f 52 55 56
f 50 54 55
f 50 55 51
f 49 52 56
f 49 56 53
f 57 58 59
f 57 59 60
f 61 63 62
f 61 64 63
f 57 61 62
f 57 62 58
f 60 59 63
f 60 63 64
f 58 62 63
f 58 63 59
f 57 60 64
f 57 64 61
f 65 66 67
f 65 67 68
f 69 71 70
f 69 72 71
f 65 69 70
f 65 70 66
f 68 67 71
f 68 71 72
f 66 70 71
f 66 71 67
f 65 68 72
f 65 72 69
f 73 74 75
f 73 75 76
f 77 79 78
f 77 80 79
f 73 77 78
f 73 78 74
f 76 75 79
f 76 79 80
f 74 78 79
f 74 79 75
f 73 76 80
f 73 80 77
f 81 82 83
f 81 83 84
f 85 87 86
f 85 88 87
f 81 85 86
f 81 86 82
f 84 83 87
f 84 87 88
f 82 86 87
f 82 87 83
f 81 84 88
f 81 88 85
